#N canvas 869 30 622 301 10;
#X obj 216 53 osc~ 100;
#X obj 216 105 lop~ 100;
#X obj 20 128 grapher~;
#X obj 370 126 grapher~;
#X obj 213 8 hsl 136 16 0 300 0 0 empty empty empty -2 -8 0 10 #fcfcfc #000000 #000000 0 1;
#X floatatom 214 30 5 0 0 0 - - - 0;
#X obj 281 696;
#X obj 59 425 noise~;
#X obj 60 496 dac~;
#X obj 62 456 lop~ 400;
#X obj 174 402 hsl 136 16 0 1000 0 0 empty empty empty -2 -8 0 10 #fcfcfc #000000 #000000 0 1;
#X obj 137 513 grapher~;
#X obj 385 404 noise~;
#X obj 386 475 dac~;
#X obj 388 435 hip~ 400;
#X obj 462 400 hsl 136 16 0 20000 0 0 empty empty empty -2 -8 0 10 #fcfcfc #000000 #000000 0 1;
#X obj 395 513 noise~;
#X obj 400 657 dac~;
#X obj 475 509 hsl 136 16 0 20000 0 0 empty empty empty -2 -8 0 10 #fcfcfc #000000 #000000 0 1;
#X obj 449 620 vline~;
#X obj 447 567 bng 16 250 50 0 empty empty empty 0 -8 0 10 #fcfcfc #000000 #000000;
#X obj 400 629 *~;
#X msg 447 588 1 500 \, 0 2000 500;
#X obj 372 590 dac~;
#X obj 398 544 bp~ 400 200;
#X connect 0 0 1 0;
#X connect 0 0 2 0;
#X connect 1 0 3 0;
#X connect 4 0 5 0;
#X connect 5 0 0 0;
#X connect 7 0 9 0;
#X connect 9 0 11 0;
#X connect 10 0 9 1;
#X connect 12 0 14 0;
#X connect 15 0 14 1;
#X connect 16 0 24 0;
#X connect 18 0 24 1;
#X connect 19 0 21 1;
#X connect 20 0 22 0;
#X connect 21 0 17 0;
#X connect 21 0 17 1;
#X connect 22 0 19 0;
#X connect 24 0 23 0;
#X connect 24 0 23 1;
