#N canvas 869 30 718 416 10;
#X obj 62 55 phasor~ 300;
#X obj 127 108 osc~ 100;
#X obj 55 233 grapher~;
#X obj 99 192 dac~;
#X obj 64 22 hsl 136 16 0 2000 0 0 empty empty empty -2 -8 0 10 #fcfcfc #000000 #000000 0 1;
#X obj 99 161 *~;
#X obj 332 47 phasor~ 300;
#X obj 333 83 *~ 2;
#X obj 431 120 grapher~;
#X obj 333 134 -~ 1;
#X obj 329 291 grapher~;
#X obj 349 169 dac~;
#X obj 332 19 hsl 136 16 0 2000 0 0 empty empty empty -2 -8 0 10 #fcfcfc #000000 #000000 0 1;
#X obj 80 551 phasor~ 100;
#X obj 132 957;
#X obj 139 604 +~;
#X obj 136 673 dac~;
#X msg 161 518 0;
#X msg 208 518 0.5;
#X msg 251 517 0.75;
#X obj 178 473 bng 16 250 50 0 empty empty empty 0 -8 0 10 #fcfcfc #000000 #000000;
#X obj 166 552 phasor~ -100;
#X obj 142 640 -~ 1;
#X obj 112 454 * -1;
#X obj 78 417 hsl 136 16 0 2000 0 0 empty empty empty -2 -8 0 10 #fcfcfc #000000 #000000 0 1;
#X obj 332 623 phasor~ 100;
#X msg 413 590 0;
#X msg 460 590 0.5;
#X msg 503 589 0.75;
#X obj 430 545 bng 16 250 50 0 empty empty empty 0 -8 0 10 #fcfcfc #000000 #000000;
#X obj 418 624 phasor~ -100;
#X obj 364 526 * -1;
#X obj 330 489 hsl 136 16 0 2000 0 0 empty empty empty -2 -8 0 10 #fcfcfc #000000 #000000 0 1;
#X obj 331 669 *~ 2;
#X obj 418 668 *~ 2;
#X obj 332 715 clip~ 0 1;
#X obj 421 712 clip~ 0 1;
#X obj 381 777 *~;
#X obj 571 677 grapher~;
#X obj 243 781 osc~ 100;
#X obj 165 740 hsl 136 16 0 2000 0 0 empty empty empty -2 -8 0 10 #fcfcfc #000000 #000000 0 1;
#X obj 272 820 *~;
#X obj 269 864 dac~;
#X obj 384 811 *~ 2;
#X obj 387 844 -~ 1;
#X obj 390 880 grapher~;
#X connect 0 0 5 0;
#X connect 0 0 2 0;
#X connect 1 0 5 1;
#X connect 4 0 0 0;
#X connect 6 0 7 0;
#X connect 7 0 9 0;
#X connect 7 0 8 0;
#X connect 9 0 10 0;
#X connect 12 0 6 0;
#X connect 13 0 15 0;
#X connect 15 0 22 0;
#X connect 17 0 13 1;
#X connect 17 0 21 1;
#X connect 18 0 21 1;
#X connect 19 0 21 1;
#X connect 20 0 17 0;
#X connect 20 0 18 0;
#X connect 21 0 15 1;
#X connect 23 0 20 0;
#X connect 23 0 21 0;
#X connect 24 0 23 0;
#X connect 24 0 13 0;
#X connect 25 0 33 0;
#X connect 26 0 25 1;
#X connect 26 0 30 1;
#X connect 27 0 30 1;
#X connect 28 0 30 1;
#X connect 29 0 26 0;
#X connect 30 0 34 0;
#X connect 31 0 29 0;
#X connect 31 0 30 0;
#X connect 32 0 31 0;
#X connect 32 0 25 0;
#X connect 33 0 35 0;
#X connect 34 0 36 0;
#X connect 35 0 37 0;
#X connect 36 0 37 1;
#X connect 37 0 38 0;
#X connect 37 0 41 1;
#X connect 37 0 43 0;
#X connect 39 0 41 0;
#X connect 40 0 39 0;
#X connect 41 0 42 0;
#X connect 41 0 42 1;
#X connect 43 0 44 0;
#X connect 44 0 45 0;
