#N canvas 663 130 561 442 10;
#X msg 140 54 devices;
#X msg 231 52 open 3;
#X obj 211 107 comport 3 9600;
#X msg 304 54 close;
#X obj 211 145 select 0 1;
#X obj 212 177 bng 15 250 50 0 empty empty empty 17 7 0 10 -262144
-1 -1;
#X obj 240 177 bng 15 250 50 0 empty empty empty 17 7 0 10 -262144
-1 -1;
#X obj 466 88 soundfiler quack;
#N canvas 0 22 450 278 (subpatch) 0;
#X array quack 46080 float 2;
#X coords 0 1 46080 -1 200 140 1;
#X restore 628 136 graph;
#X msg 466 56 read -resize ./quack.wav quack;
#X obj 241 206 tabplay~ quack;
#X obj 241 246 dac~;
#X connect 0 0 2 0;
#X connect 1 0 2 0;
#X connect 2 0 4 0;
#X connect 3 0 2 0;
#X connect 4 0 5 0;
#X connect 4 1 6 0;
#X connect 6 0 10 0;
#X connect 9 0 7 0;
#X connect 10 0 11 0;
#X connect 10 0 11 1;
