#N canvas 638 36 565 316 12;
#N canvas 0 22 450 278 (subpatch) 0;
#X array song 1.40009e+06 float 2;
#X coords 0 1 1.40009e+06 -1 200 140 1;
#X restore 336 47 graph;
#X obj 77 79 soundfiler;
#X msg 76 38 read -resize pajaritos.wav song;
#X obj 395 224 tabwrite~ song;
#X obj 74 342 tabplay~ song;
#X obj 70 386 dac~;
#X msg 81 290 stop;
#X obj 35 291 bng 19 250 50 0 empty empty empty 0 -10 0 12 #fcfcfc #000000 #000000;
#X obj 396 251 writesf~;
#X obj 71 139 key;
#X obj 138 138 keyup;
#X obj 211 145 keyname;
#X floatatom 71 173 5 0 0 0 - - - 0;
#X floatatom 138 174 5 0 0 0 - - - 0;
#X floatatom 212 178 5 0 0 0 - - - 0;
#X obj 259 176 print;
#X obj 264 233 == 97;
#X obj 264 263 tgl 19 0 empty empty empty 0 -10 0 12 #fcfcfc #000000 #000000 0 1;
#X obj 34 233 sel 112 115;
#X connect 2 0 1 0;
#X connect 4 0 5 0;
#X connect 4 0 5 1;
#X connect 6 0 4 0;
#X connect 7 0 4 0;
#X connect 9 0 12 0;
#X connect 10 0 13 0;
#X connect 11 0 14 0;
#X connect 11 1 15 0;
#X connect 12 0 16 0;
#X connect 12 0 18 0;
#X connect 16 0 17 0;
#X connect 18 0 7 0;
#X connect 18 1 6 0;
