#N canvas 433 280 901 493 12;
#X obj 30 157 pack f f;
#X obj 30 196 print;
#X obj 30 115 f 400;
#X obj 82 114 f 100;
#X obj 37 74 t b b;
#X obj 34 37 bng 19 250 50 0 empty empty empty 0 -10 0 12 #fcfcfc #000000 #000000;
#X obj 193 74 unpack f f;
#X msg 143 20 440 0.5;
#X msg 215 18 1000 0.9;
#X msg 307 18 2000 0.1;
#X floatatom 170 123 5 0 0 0 - - - 0;
#X floatatom 260 125 5 0 0 0 - - - 0;
#X obj 170 164 osc~;
#X obj 211 209 *~;
#X obj 200 255 dac~;
#X msg 400 99 volumen \$1;
#X floatatom 399 62 5 0 0 0 - - - 0;
#X obj 401 132 print;
#X obj 88 382 f 100;
#X obj 199 342 unpack f f;
#X floatatom 176 391 5 0 0 0 - - - 0;
#X obj 176 432 osc~;
#X obj 217 477 *~;
#X obj 206 523 dac~;
#X msg 149 288 440 1000;
#X msg 221 286 1000 500;
#X msg 313 286 2000 100;
#X obj 309 475 line~;
#X msg 280 380 1 \, 0 \$1;
#X obj 271 411 line~;
#X obj 647 331 random 100;
#X obj 648 371 + 100;
#X obj 524 282 t b b b;
#X msg 426 453 \$1 \$2;
#X msg 516 456 \$1 \$2;
#X obj 523 253 bng 19 250 50 0 empty empty empty 0 -10 0 12 #fcfcfc #000000 #000000;
#X obj 429 410 pack f f;
#X obj 520 412 pack f f;
#X obj 522 221 metro 400;
#X obj 520 191 tgl 19 0 empty empty empty 0 -10 0 12 #fcfcfc #000000 #000000 0 1;
#X obj 427 486 unpack f f;
#X floatatom 404 535 5 0 0 0 - - - 0;
#X obj 404 576 osc~;
#X obj 445 621 *~;
#X obj 434 667 dac~;
#X msg 508 524 1 \, 0 \$1;
#X obj 499 555 line~;
#X obj 415 333 random 2000;
#X obj 518 333 random 2000;
#X obj 421 373 + 100;
#X obj 519 375 + 100;
#X connect 0 0 1 0;
#X connect 2 0 0 0;
#X connect 3 0 0 1;
#X connect 4 0 2 0;
#X connect 4 1 3 0;
#X connect 5 0 4 0;
#X connect 6 0 10 0;
#X connect 6 1 11 0;
#X connect 7 0 6 0;
#X connect 8 0 6 0;
#X connect 9 0 6 0;
#X connect 10 0 12 0;
#X connect 11 0 13 1;
#X connect 12 0 13 0;
#X connect 15 0 17 0;
#X connect 16 0 15 0;
#X connect 19 0 20 0;
#X connect 19 1 28 0;
#X connect 20 0 21 0;
#X connect 21 0 22 0;
#X connect 22 0 23 0;
#X connect 22 0 23 1;
#X connect 24 0 19 0;
#X connect 25 0 19 0;
#X connect 26 0 19 0;
#X connect 28 0 29 0;
#X connect 29 0 22 1;
#X connect 30 0 31 0;
#X connect 31 0 36 1;
#X connect 31 0 37 1;
#X connect 32 0 47 0;
#X connect 32 1 48 0;
#X connect 32 2 30 0;
#X connect 33 0 40 0;
#X connect 34 0 40 0;
#X connect 35 0 32 0;
#X connect 36 0 33 0;
#X connect 37 0 34 0;
#X connect 38 0 35 0;
#X connect 39 0 38 0;
#X connect 40 0 41 0;
#X connect 40 1 45 0;
#X connect 41 0 42 0;
#X connect 42 0 43 0;
#X connect 43 0 44 0;
#X connect 43 0 44 1;
#X connect 45 0 46 0;
#X connect 46 0 43 1;
#X connect 47 0 49 0;
#X connect 48 0 50 0;
#X connect 49 0 36 0;
#X connect 50 0 37 0;
