#N canvas 667 73 605 300 12;
#X obj 198 148 random 2000;
#X obj 199 100 bng 19 250 50 0 empty empty empty 0 -10 0 12 #fcfcfc #000000 #000000;
#X floatatom 199 185 5 0 0 0 - - - 0;
#X obj 198 224 osc~;
#X obj 194 265 dac~;
#X obj 200 63 metro 100;
#X obj 200 22 tgl 19 0 empty empty empty 0 -10 0 12 #fcfcfc #000000 #000000 0 1;
#X obj 349 24 vsl 19 162 100 400 0 0 empty empty empty 0 -9 0 12 #fcfcfc #000000 #000000 0 1;
#X connect 0 0 2 0;
#X connect 1 0 0 0;
#X connect 2 0 3 0;
#X connect 3 0 4 0;
#X connect 3 0 4 1;
#X connect 5 0 1 0;
#X connect 6 0 5 0;
#X connect 7 0 5 1;
