#N canvas 278 81 879 467 10;
#X msg 140 54 devices;
#X msg 231 52 open 3;
#X obj 211 107 comport 3 9600;
#X msg 304 54 close;
#X obj 314 146 select 0 1;
#X obj 315 178 bng 15 250 50 0 empty empty empty 17 7 0 10 #fcfcfc #000000 #000000;
#X obj 343 178 bng 15 250 50 0 empty empty empty 17 7 0 10 #fcfcfc #000000 #000000;
#X obj 466 88 soundfiler quack;
#N canvas 0 22 450 278 (subpatch) 0;
#X array quack 46080 float 2;
#X coords 0 1 46080 -1 200 140 1;
#X restore 628 136 graph;
#X msg 466 56 read -resize ./quack.wav quack;
#X obj 344 207 tabplay~ quack;
#X obj 344 247 dac~;
#X obj 56 156 select 13;
#X obj 92 196 t f f;
#X obj 93 228 sel 10;
#X obj 146 285 list prepend;
#X obj 147 325 spigot;
#X obj 235 285 t a;
#X obj 95 257 t b b;
#X obj 164 232 == 10;
#X obj 146 363 print;
#X obj 291 332 list append 10;
#X obj 292 357 fudiparse;
#X obj 291 387 unpack s f;
#X obj 441 389 route A0 A3;
#X obj 541 414 osc~;
#X obj 542 486 dac~;
#X obj 432 467 vsl 16 136 0 1000 0 0 empty empty empty 0 -9 0 10 #fcfcfc #000000 #000000 0 1;
#X obj 465 432 / 1000;
#X obj 540 455 *~;
#X msg 85 71 print 1;
#X connect 0 0 2 0;
#X connect 1 0 2 0;
#X connect 2 0 4 0;
#X connect 2 0 12 0;
#X connect 3 0 2 0;
#X connect 4 0 5 0;
#X connect 4 1 6 0;
#X connect 6 0 10 0;
#X connect 9 0 7 0;
#X connect 10 0 11 0;
#X connect 10 0 11 1;
#X connect 12 1 13 0;
#X connect 13 0 14 0;
#X connect 13 1 19 0;
#X connect 14 0 18 0;
#X connect 14 1 15 0;
#X connect 15 0 17 0;
#X connect 15 0 16 0;
#X connect 16 0 21 0;
#X connect 17 0 15 1;
#X connect 18 0 15 1;
#X connect 18 1 15 0;
#X connect 19 0 16 1;
#X connect 21 0 22 0;
#X connect 22 0 23 0;
#X connect 22 0 24 0;
#X connect 24 0 27 0;
#X connect 24 0 28 0;
#X connect 24 1 25 0;
#X connect 25 0 29 0;
#X connect 28 0 29 1;
#X connect 29 0 26 0;
#X connect 30 0 2 0;
