#N canvas 363 53 605 300 12;
#X floatatom 632 274 5 0 0 0 - - -;
#X obj 147 177 +;
#X obj 197 177 -;
#X obj 245 177 /;
#X obj 293 177 *;
#X obj 338 177 pow;
#X msg 191 101 2;
#X msg 277 100 3;
#X obj 134 221 print;
#X obj 192 221 print;
#X obj 244 221 print;
#X obj 294 222 print;
#X obj 344 222 print;
#X obj 447 179 moses 20;
#X obj 564 181 sel 1 2;
#X floatatom 445 138 5 0 0 0 - - -;
#X floatatom 447 221 5 0 0 0 - - -;
#X floatatom 502 221 5 0 0 0 - - -;
#X msg 544 134 0;
#X msg 589 133 1;
#X msg 634 131 2;
#X obj 564 215 bng 15 250 50 0 empty empty empty 17 7 0 10 -262144
-1 -1;
#X obj 588 216 bng 15 250 50 0 empty empty empty 17 7 0 10 -262144
-1 -1;
#X obj 610 217 bng 15 250 50 0 empty empty empty 17 7 0 10 -262144
-1 -1;
#X connect 1 0 8 0;
#X connect 2 0 9 0;
#X connect 3 0 10 0;
#X connect 4 0 11 0;
#X connect 5 0 12 0;
#X connect 6 0 1 0;
#X connect 6 0 2 0;
#X connect 6 0 3 0;
#X connect 6 0 4 0;
#X connect 6 0 5 0;
#X connect 7 0 1 1;
#X connect 7 0 2 1;
#X connect 7 0 3 1;
#X connect 7 0 4 1;
#X connect 7 0 5 1;
#X connect 13 0 16 0;
#X connect 13 1 17 0;
#X connect 14 0 21 0;
#X connect 14 1 22 0;
#X connect 14 2 23 0;
#X connect 15 0 13 0;
#X connect 18 0 14 0;
#X connect 19 0 14 0;
#X connect 20 0 14 0;
