#N canvas 251 435 787 422 12;
#X obj 81 41 f;
#X obj 81 65 + 1;
#X floatatom 81 96 5 0 0 0 - - - 0;
#X obj 74 8 bng 19 250 50 0 empty empty empty 0 -10 0 12 #fcfcfc #000000 #000000;
#X floatatom 81 147 5 0 0 0 - - - 0;
#X obj 81 170 sel 0 1 2 3 4 5 6 7 8 9;
#X obj 64 201 bng 19 250 50 0 empty empty empty 0 -10 0 12 #fcfcfc #000000 #000000;
#X obj 87 201 bng 19 250 50 0 empty empty empty 0 -10 0 12 #fcfcfc #000000 #000000;
#X obj 112 202 bng 19 250 50 0 empty empty empty 0 -10 0 12 #fcfcfc #000000 #000000;
#X obj 138 202 bng 19 250 50 0 empty empty empty 0 -10 0 12 #fcfcfc #000000 #000000;
#X obj 164 202 bng 19 250 50 0 empty empty empty 0 -10 0 12 #fcfcfc #000000 #000000;
#X obj 189 202 bng 19 250 50 0 empty empty empty 0 -10 0 12 #fcfcfc #000000 #000000;
#X obj 212 202 bng 19 250 50 0 empty empty empty 0 -10 0 12 #fcfcfc #000000 #000000;
#X obj 236 201 bng 19 250 50 0 empty empty empty 0 -10 0 12 #fcfcfc #000000 #000000;
#X obj 260 200 bng 19 250 50 0 empty empty empty 0 -10 0 12 #fcfcfc #000000 #000000;
#X obj 287 201 bng 19 250 50 0 empty empty empty 0 -10 0 12 #fcfcfc #000000 #000000;
#X obj 408 61 f 32.7;
#X floatatom 408 85 5 0 0 0 - - - 0;
#X obj 408 26 bng 19 250 50 0 empty empty empty 0 -10 0 12 #fcfcfc #000000 #000000;
#X obj 3 271 f 32.7;
#X obj 58 273 f 65.41;
#X obj 122 274 f 130.81;
#X obj 192 273 f 251.63;
#X obj 269 273 f 523.25;
#X obj 344 273 f 1046.5;
#X obj 422 273 f 2093;
#X obj 123 316 osc~;
#X obj 123 340 dac~;
#X obj 81 123 mod 7;
#X obj 181 43 metro;
#X obj 179 10 tgl 19 0 empty empty empty 0 -10 0 12 #fcfcfc #000000 #000000 0 1;
#X obj 314 9 vsl 19 162 100 500 0 0 empty empty empty 0 -9 0 12 #fcfcfc #000000 #000000 0 1;
#X obj 513 93 expr $f1+$f2+$f3+$f4;
#X floatatom 510 48 5 0 0 0 - - - 0;
#X floatatom 559 47 5 0 0 0 - - - 0;
#X floatatom 607 48 5 0 0 0 - - - 0;
#X floatatom 657 47 5 0 0 0 - - - 0;
#X floatatom 512 133 5 0 0 0 - - - 0;
#X floatatom 541 180 5 0 0 0 - - - 0;
#X floatatom 655 179 5 0 0 0 - - - 0;
#X floatatom 541 252 10 0 0 0 - - - 0;
#X obj 483 190 bng 19 250 50 0 empty empty empty 0 -10 0 12 #fcfcfc #000000 #000000;
#X obj 541 228 expr $f1*pow(2 \, ($f2)/12);
#X connect 0 0 1 0;
#X connect 1 0 0 1;
#X connect 1 0 2 0;
#X connect 2 0 28 0;
#X connect 3 0 0 0;
#X connect 4 0 5 0;
#X connect 5 0 6 0;
#X connect 5 1 7 0;
#X connect 5 2 8 0;
#X connect 5 3 9 0;
#X connect 5 4 10 0;
#X connect 5 5 11 0;
#X connect 5 6 12 0;
#X connect 5 7 13 0;
#X connect 5 8 14 0;
#X connect 5 9 15 0;
#X connect 6 0 19 0;
#X connect 7 0 20 0;
#X connect 8 0 21 0;
#X connect 9 0 22 0;
#X connect 10 0 23 0;
#X connect 11 0 24 0;
#X connect 12 0 25 0;
#X connect 16 0 17 0;
#X connect 18 0 16 0;
#X connect 19 0 26 0;
#X connect 20 0 26 0;
#X connect 21 0 26 0;
#X connect 22 0 26 0;
#X connect 23 0 26 0;
#X connect 24 0 26 0;
#X connect 25 0 26 0;
#X connect 26 0 27 0;
#X connect 28 0 4 0;
#X connect 29 0 3 0;
#X connect 30 0 29 0;
#X connect 31 0 29 1;
#X connect 32 0 37 0;
#X connect 33 0 32 0;
#X connect 34 0 32 1;
#X connect 35 0 32 2;
#X connect 36 0 32 3;
#X connect 38 0 42 0;
#X connect 39 0 42 1;
#X connect 41 0 42 0;
#X connect 42 0 40 0;
