#N canvas 286 231 621 377 10;
#X msg 95 13 devices;
#X msg 98 40 open 3;
#X obj 211 107 comport 3 9600;
#X msg 99 64 close;
#X obj 56 156 select 13;
#X obj 92 196 t f f;
#X obj 93 228 sel 10;
#X obj 146 285 list prepend;
#X obj 147 325 spigot;
#X obj 235 285 t a;
#X obj 95 257 t b b;
#X obj 164 232 == 10;
#X obj 146 363 print;
#X obj 291 332 list append 10;
#X obj 292 357 fudiparse;
#X obj 291 387 unpack s f;
#X obj 441 389 route A0 A3;
#X obj 541 414 osc~;
#X obj 542 486 dac~;
#X obj 432 467 vsl 16 136 0 1000 0 0 empty empty empty 0 -9 0 10 #fcfcfc #000000 #000000 0 1;
#X obj 465 432 / 1000;
#X obj 540 455 *~;
#X obj 240 48 list fromsymbol;
#X obj 242 71 list append 10;
#X obj 242 4 hsl 128 15 0 255 0 0 empty empty empty -2 -8 0 10 #fcfcfc #000000 #000000 0 1;
#X obj 384 48 list fromsymbol;
#X obj 382 71 list append 10;
#X obj 386 4 hsl 128 15 0 255 0 0 empty empty empty -2 -8 0 10 #fcfcfc #000000 #000000 0 1;
#X obj 508 91 print;
#X obj 384 26 makefilename out2\ %d;
#X obj 240 26 makefilename out1\ %d;
#X connect 0 0 2 0;
#X connect 1 0 2 0;
#X connect 2 0 4 0;
#X connect 3 0 2 0;
#X connect 4 1 5 0;
#X connect 5 0 6 0;
#X connect 5 1 11 0;
#X connect 6 0 10 0;
#X connect 6 1 7 0;
#X connect 7 0 9 0;
#X connect 7 0 8 0;
#X connect 8 0 13 0;
#X connect 9 0 7 1;
#X connect 10 0 7 1;
#X connect 10 1 7 0;
#X connect 11 0 8 1;
#X connect 13 0 14 0;
#X connect 14 0 15 0;
#X connect 14 0 16 0;
#X connect 16 0 19 0;
#X connect 16 0 20 0;
#X connect 16 1 17 0;
#X connect 17 0 21 0;
#X connect 20 0 21 1;
#X connect 21 0 18 0;
#X connect 22 0 23 0;
#X connect 23 0 2 0;
#X connect 24 0 30 0;
#X connect 25 0 26 0;
#X connect 26 0 2 0;
#X connect 26 0 28 0;
#X connect 27 0 29 0;
#X connect 29 0 25 0;
#X connect 30 0 22 0;
