#N canvas 908 230 740 385 12;
#N canvas 0 22 450 278 (subpatch) 0;
#X array cumbia 1.11941e+07 float 2;
#A color 0;
#A width 2;
#X coords 0 1 1.11941e+07 -1 200 140 1;
#X restore 656 104 graph;
#X obj 307 56 soundfiler;
#X msg 307 4 read -resize CumbiaSampuesana.wav cumbia;
#X obj 325 89 print;
#X obj 306 124 expr $f1/44100;
#X obj 95 107 vsl 19 162 0 2 0 0 empty empty empty 0 -9 0 12 #fcfcfc #000000 #000000 0 1;
#X obj 233 221 phasor~;
#X obj 233 195 *;
#X obj 232 273 tabread4~ cumbia;
#X obj 233 246 *~;
#X obj 225 340 dac~;
#X floatatom 226 171 5 0 0 0 - - - 0;
#X floatatom 309 149 5 0 0 0 - - - 0;
#X obj 503 147 tabplay~ cumbia;
#X msg 467 79 stop;
#X msg 551 75 bang;
#X obj 497 197 dac~;
#X obj 305 172 expr 1/$f1;
#X obj 423 181 vsl 19 162 0 2 0 0 empty empty empty 0 -9 0 12 #fcfcfc #000000 #000000 0 1;
#X text 7 152 Pitch 0 - 2;
#X obj 225 305 *~;
#X text 302 238 Volumen 0-1;
#X obj 50 -9 udpreceive 10000;
#X obj 54 21 unpackOSC;
#X obj 57 63 routeOSC /pitch;
#X obj 176 62 routeOSC /volumen;
#X connect 1 0 3 0;
#X connect 1 0 4 0;
#X connect 1 0 9 1;
#X connect 2 0 1 0;
#X connect 4 0 12 0;
#X connect 5 0 11 0;
#X connect 6 0 9 0;
#X connect 7 0 6 0;
#X connect 8 0 20 0;
#X connect 9 0 8 0;
#X connect 11 0 7 0;
#X connect 12 0 17 0;
#X connect 13 0 16 0;
#X connect 13 0 16 1;
#X connect 14 0 13 0;
#X connect 15 0 13 0;
#X connect 17 0 7 1;
#X connect 18 0 20 1;
#X connect 20 0 10 0;
#X connect 20 0 10 1;
#X connect 22 0 23 0;
#X connect 23 0 24 0;
#X connect 23 0 25 0;
#X connect 24 0 5 0;
#X connect 25 0 18 0;
