#N canvas 507 127 760 380 10;
#X obj 55 47 osc~;
#X obj 241 144 dac~;
#X obj 302 180 grapher~;
#X obj 48 194 grapher~;
#X obj 142 23 osc~;
#X obj 55 74 *~;
#X obj 142 2 hsl 200 16 0.01 10 0 0 empty empty empty -2 -8 0 10 #fcfcfc #000000 #000000 0 1;
#X obj 144 53 +~ 1;
#X obj 140 84 /~ 2;
#X obj 58 5 hsl 50 16 10 1000 0 0 empty empty empty -2 -8 0 10 #fcfcfc #000000 #000000 0 1;
#X obj 268 50 noise~;
#X obj 250 109 *~;
#X connect 0 0 5 0;
#X connect 4 0 7 0;
#X connect 6 0 4 0;
#X connect 7 0 8 0;
#X connect 8 0 3 0;
#X connect 8 0 5 1;
#X connect 8 0 11 1;
#X connect 9 0 0 0;
#X connect 10 0 11 0;
#X connect 11 0 1 0;
#X connect 11 0 1 1;
#X connect 11 0 2 0;
