#N canvas 345 35 729 419 12;
#X obj -2 107 osc~ 440;
#X obj 111 191 *~;
#X obj 111 215 dac~;
#X obj 188 154 line~;
#X obj 183 195 grapher~;
#X obj 178 6 keyname;
#X obj 182 72 bng 19 250 50 0 empty empty empty 0 -10 0 12 #fcfcfc #000000 #000000;
#X obj 182 41 select a s d;
#X obj 211 72 bng 19 250 50 0 empty empty empty 0 -10 0 12 #fcfcfc #000000 #000000;
#X obj 240 71 bng 19 250 50 0 empty empty empty 0 -10 0 12 #fcfcfc #000000 #000000;
#X obj 427 194 grapher~;
#X msg 364 103 1 \, 0 50;
#X msg 276 102 1 \, 0 100;
#X msg 186 103 1 \, 0 400;
#X msg 503 56 \; pd dsp \$1;
#X obj 499 21 tgl 19 0 empty empty empty 0 -10 0 12 #fcfcfc #000000 #000000 0 1;
#X msg 448 105 0 \, 1 400;
#X obj 757 104 delay 1000;
#X obj 756 67 bng 19 250 50 0 empty empty empty 0 -10 0 12 #fcfcfc #000000 #000000;
#X obj 757 134 bng 19 250 50 0 empty empty empty 0 -10 0 12 #fcfcfc #000000 #000000;
#X obj 632 4 bng 19 250 50 0 empty empty empty 0 -10 0 12 #fcfcfc #000000 #000000;
#X obj 630 114 bng 19 250 50 0 empty empty empty 0 -10 0 12 #fcfcfc #000000 #000000;
#X obj 629 86 delay;
#X msg 632 35 0 \, 1 50;
#X msg 634 141 1 \, 0 50;
#X msg 631 62 100;
#X obj 86 82 osc~;
#X obj 87 118 +~ 1;
#X obj 86 146 /~ 2;
#X obj 23 180 *~;
#X obj 19 221 dac~;
#X obj 141 11 vsl 19 162 0 10 0 0 empty empty empty 0 -9 0 12 #fcfcfc #000000 #000000 0 1;
#X obj 4 21 hsl 120 19 0 200 0 0 empty empty empty -2 -10 0 12 #fcfcfc #000000 #000000 0 1;
#X connect 0 0 29 0;
#X connect 1 0 2 0;
#X connect 1 0 2 1;
#X connect 1 0 4 0;
#X connect 3 0 1 1;
#X connect 3 0 10 0;
#X connect 5 1 7 0;
#X connect 6 0 13 0;
#X connect 7 0 6 0;
#X connect 7 1 8 0;
#X connect 7 2 9 0;
#X connect 8 0 12 0;
#X connect 9 0 11 0;
#X connect 11 0 3 0;
#X connect 12 0 3 0;
#X connect 13 0 3 0;
#X connect 15 0 14 0;
#X connect 16 0 3 0;
#X connect 17 0 19 0;
#X connect 18 0 17 0;
#X connect 20 0 23 0;
#X connect 21 0 24 0;
#X connect 22 0 21 0;
#X connect 23 0 3 0;
#X connect 23 0 25 0;
#X connect 24 0 3 0;
#X connect 25 0 22 0;
#X connect 26 0 27 0;
#X connect 27 0 28 0;
#X connect 28 0 29 1;
#X connect 29 0 1 0;
#X connect 31 0 26 0;
#X connect 32 0 0 0;
