#N canvas 421 344 729 419 12;
#X obj 153 214 osc~;
#X obj 149 281 dac~;
#X obj 355 187 grapher~;
#X obj 141 20 osc~ 10;
#X msg 557 51 \; pd dsp \$1;
#X obj 559 4 tgl 19 0 empty empty empty 0 -10 0 12 #fcfcfc #000000 #000000 0 1;
#X obj 138 61 +~ 1;
#X obj 138 89 /~ 2;
#X obj 130 116 *~ 100;
#X obj 131 152 +~ 440;
#X obj 249 10 hsl 162 19 0 1000 0 0 empty empty empty -2 -10 0 12 #fcfcfc #000000 #000000 0 1;
#X obj 231 84 hsl 162 19 0 200 0 0 empty empty empty -2 -10 0 12 #fcfcfc #000000 #000000 0 1;
#X floatatom 243 41 5 0 0 0 - - - 0;
#X floatatom 235 120 5 0 0 0 - - - 0;
#X connect 0 0 1 0;
#X connect 0 0 1 1;
#X connect 0 0 2 0;
#X connect 3 0 6 0;
#X connect 5 0 4 0;
#X connect 6 0 7 0;
#X connect 7 0 8 0;
#X connect 8 0 9 0;
#X connect 9 0 0 0;
#X connect 10 0 3 0;
#X connect 10 0 12 0;
#X connect 11 0 8 1;
#X connect 11 0 13 0;
