#N canvas 550 36 591 323 12;
#X obj 47 26 osc~ 440;
#X obj 84 111 *~;
#X obj 84 135 dac~;
#X obj 161 74 line~;
#X msg 159 47 1 \, 0 200;
#X connect 0 0 1 0;
#X connect 1 0 2 0;
#X connect 1 0 2 1;
#X connect 3 0 1 1;
#X connect 4 0 3 0;
