#N canvas 537 116 919 698 12;
#N canvas 0 22 450 278 (subpatch) 0;
#X array cumbia 1.11941e+07 float 2;
#A color 0;
#A width 2;
#X coords 0 1 1.11941e+07 -1 200 140 1;
#X restore 656 104 graph;
#X obj 307 56 soundfiler;
#X msg 307 4 read -resize CumbiaSampuesana.wav cumbia;
#X obj 325 89 print;
#X obj 306 124 expr $f1/44100;
#X obj 222 -3 vsl 19 162 0 2 0 0 empty empty empty 0 -9 0 12 #fcfcfc #000000 #000000 0 1;
#X obj 233 221 phasor~;
#X obj 233 195 *;
#X obj 232 273 tabread4~ cumbia;
#X obj 233 246 *~;
#X obj 225 340 dac~;
#X floatatom 226 171 5 0 0 0 - - - 0;
#X floatatom 309 149 5 0 0 0 - - - 0;
#X obj 503 147 tabplay~ cumbia;
#X msg 467 79 stop;
#X msg 551 75 bang;
#X obj 497 197 dac~;
#X obj 305 172 expr 1/$f1;
#X obj 149 145 vsl 19 162 0 2 0 0 empty empty empty 0 -9 0 12 #fcfcfc #000000 #000000 0 1;
#X text 96 82 Pitch 0 - 2;
#X obj 225 305 *~;
#X text 28 159 Volumen 0-1;
#N canvas 0 22 450 278 (subpatch) 0;
#X array sample 64 float 3;
#A 0 -0.0887186 -0.102428 -0.140378 -0.125165 -0.118477 -0.146062 -0.136366 -0.149908 -0.269276 -0.36223 -0.333809 -0.298032 -0.271283 -0.252558 -0.241357 -0.257741 -0.200341 -0.109226 -0.0187245 -0.0114242 -0.0400683 -0.106719 -0.0936784 -0.146062 -0.158378 -0.156261 -0.163449 -0.168799 -0.183177 -0.181617 -0.17309 -0.112514 -0.138428 -0.178775 -0.177549 -0.184292 -0.17844 -0.196552 -0.0652572 -0.0803594 -0.14088 -0.0432447 0.0355543 0.0893873 0.0658145 0.0259134 0.00412385 -0.0523841 -0.0917836 -0.119982 -0.129233 -0.119313 -0.119592 -0.218397 -0.206304 -0.228484 -0.200397 -0.00479259 -0.00490404 -0.0314305 0.00429104 0.0796907 0.120706 0.0458639;
#A color 0;
#A width 2;
#X coords 0 1 64 -1 200 140 1;
#X restore 590 314 graph;
#X obj 393 346 tabwrite~ sample;
#X obj 403 278 metro 100;
#X obj 406 231 tgl 15 0 empty empty empty 17 7 0 10 #fcfcfc #000000 #000000 0 1;
#X obj 330 407 bng 19 250 50 0 empty empty empty 0 -10 0 12 #fcfcfc #000000 #000000;
#X obj 626 1068;
#X obj 339 596 f;
#X msg 375 547 0;
#X obj 339 635 + 1;
#X obj 257 671 tabread sample;
#X msg 460 668 set, f 4;
#X obj 318 547 until;
#X obj 312 800 print;
#X msg 269 707 append \$1;
#X obj 618 726 list append;
#X obj 283 753 list store;
#X obj 140 651 bng 19 250 50 0 empty empty empty 0 -10 0 12 #fcfcfc #000000 #000000;
#X obj 331 446 trigger b b b b;
#X obj 103 799 list prepend /signal/data;
#X obj 87 993 print;
#X obj 182 843 packOSC;
#X obj 173 873 udpsend;
#X obj 73 904 list trim;
#X msg 315 832 connect 127.0.0.1 10003;
#X msg 350 904 disconnect;
#X msg 320 502 10;
#X obj 628 566 array get sample;
#X obj 628 607 list prepend /signal/data;
#X obj 623 496 bng 19 250 50 0 empty empty empty 0 -10 0 12 #fcfcfc #000000 #000000;
#X obj 626 689 print;
#X obj 582 644 list trim;
#X connect 1 0 3 0;
#X connect 1 0 4 0;
#X connect 1 0 9 1;
#X connect 2 0 1 0;
#X connect 4 0 12 0;
#X connect 5 0 11 0;
#X connect 6 0 9 0;
#X connect 7 0 6 0;
#X connect 8 0 20 0;
#X connect 9 0 8 0;
#X connect 11 0 7 0;
#X connect 12 0 17 0;
#X connect 13 0 16 0;
#X connect 13 0 16 1;
#X connect 14 0 13 0;
#X connect 15 0 13 0;
#X connect 17 0 7 1;
#X connect 18 0 20 1;
#X connect 20 0 10 0;
#X connect 20 0 10 1;
#X connect 20 0 23 0;
#X connect 24 0 23 0;
#X connect 24 0 50 0;
#X connect 25 0 24 0;
#X connect 26 0 39 0;
#X connect 28 0 30 0;
#X connect 28 0 31 0;
#X connect 29 0 28 1;
#X connect 30 0 28 1;
#X connect 31 0 35 0;
#X connect 32 0 37 0;
#X connect 33 0 28 0;
#X connect 35 0 37 0;
#X connect 37 0 34 0;
#X connect 37 0 40 0;
#X connect 38 0 37 0;
#X connect 39 0 38 0;
#X connect 39 1 47 0;
#X connect 39 2 29 0;
#X connect 39 3 32 0;
#X connect 40 0 44 0;
#X connect 42 0 43 0;
#X connect 44 0 42 0;
#X connect 44 0 41 0;
#X connect 45 0 43 0;
#X connect 46 0 43 0;
#X connect 47 0 33 0;
#X connect 48 0 49 0;
#X connect 49 0 52 0;
#X connect 50 0 48 0;
#X connect 52 0 51 0;
#X connect 52 0 42 0;
