#N canvas 2567 47 970 625 10;
#X obj 86 166 udpsend;
#X msg 3 58 connect localhost 10000;
#X msg 58 85 disconnect;
#X msg 175 74 hola mundo;
#X msg 175 102 send /mensaje \$1;
#X obj 146 140 packOSC;
#X obj 105 300 udpsend;
#X msg 77 219 disconnect;
#X obj 165 274 packOSC;
#X msg 22 192 connect localhost 10001;
#X obj 194 211 f;
#X floatatom 193 182 5 0 0 0 - - - 0;
#X msg 194 236 send /pointer/x \$1;
#X obj 297 273 packOSC;
#X obj 326 210 f;
#X floatatom 325 181 5 0 0 0 - - - 0;
#X msg 326 235 send /pointer/y \$1;
#X obj 272 11 adc~;
#X obj 401 119 snapshot~;
#X floatatom 402 145 5 0 0 0 - - - 0;
#X obj 419 59 tgl 15 0 empty empty empty 17 7 0 10 #fcfcfc #000000 #000000 0 1;
#X obj 300 55 snapshot~;
#X floatatom 301 81 5 0 0 0 - - - 0;
#X obj 316 -14 tgl 15 0 empty empty empty 17 7 0 10 #fcfcfc #000000 #000000 0 1;
#X obj 317 15 metro 100;
#X obj 401 168 * 100;
#X floatatom 396 213 5 0 0 0 - - - 0;
#X obj 402 194 + 50;
#X obj 358 84 osc~ 100;
#X obj 419 84 metro 100;
#X obj 303 109 + 1;
#X obj 301 154 + 50;
#X obj 303 131 * 200;
#X connect 1 0 0 0;
#X connect 2 0 0 0;
#X connect 3 0 4 0;
#X connect 4 0 5 0;
#X connect 5 0 0 0;
#X connect 7 0 6 0;
#X connect 8 0 6 0;
#X connect 9 0 6 0;
#X connect 10 0 12 0;
#X connect 11 0 10 0;
#X connect 12 0 8 0;
#X connect 13 0 6 0;
#X connect 14 0 16 0;
#X connect 15 0 14 0;
#X connect 16 0 13 0;
#X connect 17 0 21 0;
#X connect 17 1 21 0;
#X connect 18 0 19 0;
#X connect 19 0 25 0;
#X connect 20 0 29 0;
#X connect 21 0 22 0;
#X connect 22 0 30 0;
#X connect 23 0 24 0;
#X connect 24 0 21 0;
#X connect 25 0 27 0;
#X connect 26 0 14 0;
#X connect 27 0 26 0;
#X connect 28 0 18 0;
#X connect 29 0 18 0;
#X connect 30 0 32 0;
#X connect 31 0 14 0;
#X connect 32 0 31 0;
