#N canvas 778 30 812 487 10;
#X text 213 26 Sintesis aditiva;
#X obj 17 87 osc~ 440;
#X obj 82 87 osc~ 880;
#X obj 48 120 +~;
#X obj 183 134 grapher~;
#X msg 305 113 \; pd dsp \$1;
#X obj 304 78 tgl 15 0 empty empty empty 17 7 0 10 -262144 -1 -1 1
1;
#X obj 73 220 dac~;
#X obj 16 6 vsl 15 50 0 2000 0 0 empty empty empty 0 -9 0 10 -262144
-1 -1 600 1;
#X obj 81 4 vsl 15 50 0 2000 0 0 empty empty empty 0 -9 0 10 -262144
-1 -1 1150 1;
#X obj 146 86 osc~ 880;
#X obj 145 3 vsl 15 50 0 2000 0 0 empty empty empty 0 -9 0 10 -262144
-1 -1 2100 1;
#X obj 77 145 +~;
#X obj 76 175 /~ 3;
#X floatatom 17 67 5 0 0 0 - - -;
#X floatatom 81 66 5 0 0 0 - - -;
#X floatatom 147 63 5 0 0 0 - - -;
#X connect 1 0 3 0;
#X connect 2 0 3 1;
#X connect 3 0 12 0;
#X connect 6 0 5 0;
#X connect 8 0 14 0;
#X connect 9 0 15 0;
#X connect 10 0 12 1;
#X connect 11 0 16 0;
#X connect 12 0 13 0;
#X connect 13 0 7 0;
#X connect 13 0 7 1;
#X connect 13 0 4 0;
#X connect 14 0 1 0;
#X connect 15 0 2 0;
#X connect 16 0 10 0;
